<svg xmlns="http://www.w3.org/2000/svg" width="780" height="440" viewBox="0 0 780 440">
  <defs>
    <linearGradient id="bgC" x1="0%" y1="0%" x2="100%" y2="100%">
      <stop offset="0%" stop-color="#1e3c72"/>
      <stop offset="100%" stop-color="#2a5298"/>
    </linearGradient>
    <filter id="softC"><feGaussianBlur stdDeviation="2"/></filter>
  </defs>
  <rect width="780" height="440" fill="url(#bgC)"/>
  <rect x="140" y="280" width="500" height="12" fill="rgba(255,255,255,0.1)" rx="6"/>
  <rect x="180" y="180" width="160" height="100" fill="rgba(255,255,255,0.08)" rx="8"/>
  <rect x="190" y="190" width="140" height="80" fill="rgba(255,255,255,0.12)" rx="4"/>
  <rect x="310" y="170" width="160" height="110" fill="rgba(255,255,255,0.1)" rx="8"/>
  <rect x="320" y="180" width="140" height="90" fill="rgba(255,255,255,0.14)" rx="4"/>
  <rect x="440" y="160" width="160" height="120" fill="rgba(255,255,255,0.12)" rx="8"/>
  <rect x="450" y="170" width="140" height="100" fill="rgba(255,255,255,0.16)" rx="4"/>
  <rect x="200" y="200" width="20" height="12" fill="#ffffff" opacity="0.8"/>
  <rect x="225" y="200" width="20" height="12" fill="#0057b8" opacity="0.8"/>
  <rect x="250" y="200" width="20" height="12" fill="#ffd700" opacity="0.8"/>
  <rect x="340" y="200" width="20" height="12" fill="#005bbb" opacity="0.8"/>
  <rect x="365" y="200" width="20" height="12" fill="#ffd700" opacity="0.8"/>
  <rect x="480" y="200" width="20" height="12" fill="#00afca" opacity="0.8"/>
  <rect x="505" y="200" width="20" height="12" fill="#fec50c" opacity="0.8"/>
  <polygon points="600,120 640,220 560,220" fill="#ffd700" opacity="0.9" filter="url(#softC)"/>
  <polygon points="600,140 620,210 580,210" fill="#fff" opacity="0.9"/>
  <circle cx="600" cy="130" r="30" fill="#ffd700" opacity="0.3" filter="url(#softC)"/>
  <text x="390" y="375" font-family="'Segoe UI', Helvetica, Arial, sans-serif" font-size="52" fill="#ffffff" text-anchor="middle" letter-spacing="10" font-weight="800">ИСКРА</text>
  <line x1="320" y1="400" x2="460" y2="400" stroke="#ffd700" stroke-width="2" opacity="0.6"/>
</svg>
