<svg xmlns="http://www.w3.org/2000/svg" width="780" height="440" viewBox="0 0 780 440">
  <defs>
    <linearGradient id="bgA" x1="0%" y1="0%" x2="100%" y2="100%">
      <stop offset="0%" stop-color="#0a0e27"/>
      <stop offset="100%" stop-color="#1a1040"/>
    </linearGradient>
    <linearGradient id="glowA" x1="0%" y1="0%" x2="100%" y2="100%">
      <stop offset="0%" stop-color="#ff9d00"/>
      <stop offset="50%" stop-color="#ff5e00"/>
      <stop offset="100%" stop-color="#ff0055"/>
    </linearGradient>
    <filter id="blurA"><feGaussianBlur stdDeviation="4"/></filter>
    <filter id="strongBlurA"><feGaussianBlur stdDeviation="12"/></filter>
  </defs>
  <rect width="780" height="440" fill="url(#bgA)"/>
  <g stroke="rgba(255,255,255,0.03)" stroke-width="1">
    <line x1="0" y1="110" x2="780" y2="110"/><line x1="0" y1="220" x2="780" y2="220"/><line x1="0" y1="330" x2="780" y2="330"/>
    <line x1="195" y1="0" x2="195" y2="440"/><line x1="390" y1="0" x2="390" y2="440"/><line x1="585" y1="0" x2="585" y2="440"/>
  </g>
  <g stroke="url(#glowA)" stroke-width="2" fill="none" stroke-linecap="round">
    <path d="M390 100 L360 180 L420 180 Z" opacity="0.9"/>
    <path d="M390 100 L340 220 L440 220 Z" opacity="0.6" transform="scale(1.4) translate(-117,-71)"/>
    <path d="M390 100 L320 260 L460 260 Z" opacity="0.3" transform="scale(1.8) translate(-173,-89)"/>
  </g>
  <circle cx="390" cy="180" r="80" fill="url(#glowA)" opacity="0.15" filter="url(#strongBlurA)"/>
  <circle cx="390" cy="180" r="40" fill="url(#glowA)" opacity="0.3" filter="url(#blurA)"/>
  <circle cx="390" cy="180" r="12" fill="#fff" opacity="0.9"/>
  <text x="390" y="320" font-family="'Segoe UI', Helvetica, Arial, sans-serif" font-size="72" fill="#ffffff" text-anchor="middle" letter-spacing="12" font-weight="800">ИСКРА</text>
  <text x="390" y="355" font-family="'Segoe UI', Helvetica, Arial, sans-serif" font-size="14" fill="#ff9d00" text-anchor="middle" letter-spacing="4" font-weight="600">ECOSYSTEM FOR OPENCART 4</text>
  <line x1="290" y1="375" x2="490" y2="375" stroke="#ff5e00" stroke-width="2" opacity="0.6"/>
  <rect x="30" y="30" width="40" height="40" fill="none" stroke="rgba(255,157,0,0.3)" stroke-width="2"/>
  <rect x="710" y="370" width="40" height="40" fill="none" stroke="rgba(255,157,0,0.3)" stroke-width="2"/>
</svg>
